
<svg viewBox="0 0 512 97" fill="none" xmlns="http://www.w3.org/2000/svg">
  <path d="M15.3526 0L81.8482 96.9999H0.000671387L15.3526 0Z" fill="#3395FF"/>
  <path d="M62.8022 29.1094L39.5201 76.8647L26.4373 52.8898L40.2794 29.1094H62.8022Z" fill="white"/>
  <path d="M125.532 53.9538V83.9077H116.034V22.4756H125.532V49.5538H153.965V22.4756H163.463V83.9077H153.965V53.9538H125.532Z" fill="#072654"/>
  <path d="M203.538 83.9077H195.527L174.214 22.4756H184.492L198.948 69.2256L213.125 22.4756H223.046L203.538 83.9077Z" fill="#072654"/>
  <path d="M259.27 29.4737H242.642V46.9256H259.27C265.914 46.9256 269.92 43.4678 269.92 38.2131C269.92 32.9584 265.914 29.4737 259.27 29.4737ZM259.27 56.4178H242.642V74.9126H233.145V22.4756H259.27C271.407 22.4756 279.418 28.4537 279.418 38.2131C279.418 47.9724 271.407 56.4178 259.27 56.4178Z" fill="#072654"/>
  <path d="M326.328 22.4756V31.9678H306.819V46.9256H326.03V56.4178H306.819V74.9126H326.328V83.9077H297.321V22.4756H326.328Z" fill="#072654"/>
  <path d="M342.956 59.8923V22.4756H352.454V59.5983C352.454 68.7843 356.758 75.2603 366.852 75.2603C376.946 75.2603 381.25 68.7843 381.25 59.5983V22.4756H390.748V59.8923C390.748 74.4304 381.994 84.7803 366.852 84.7803C351.413 84.7803 342.956 74.4304 342.956 59.8923Z" fill="#072654"/>
  <path d="M440.011 31.9678V83.9077H430.513V31.9678H412.61V22.4756H457.915V31.9678H440.011Z" fill="#072654"/>
  <path d="M471.716 57.2906V83.9077H462.219V22.4756H471.716V52.1637L494.239 22.4756H505.011L481.224 52.4578L505.011 83.9077H494.239L471.716 57.2906Z" fill="#072654"/>
</svg>
